<?xml version="1.0" encoding="UTF-8" standalone="no"?>
<svg
   xmlns:dc="http://purl.org/dc/elements/1.1/"
   xmlns:cc="http://creativecommons.org/ns#"
   xmlns:rdf="http://www.w3.org/1999/02/22-rdf-syntax-ns#"
   xmlns:svg="http://www.w3.org/2000/svg"
   xmlns="http://www.w3.org/2000/svg"
   viewBox="0 0 640 629.4375"
   height="629.4375"
   width="640"
   xml:space="preserve"
   version="1.1"
   id="svg2"><metadata
     id="metadata8"><rdf:RDF><cc:Work
         rdf:about=""><dc:format>image/svg+xml</dc:format><dc:type
           rdf:resource="http://purl.org/dc/dcmitype/StillImage" /></cc:Work></rdf:RDF></metadata><defs
     id="defs6" /><g
     transform="matrix(1.25,0,0,-1.25,0,629.4375)"
     id="g10"><g
       transform="scale(0.1,0.1)"
       id="g12"><path
         id="path14"
         style="fill:#100f0d;fill-opacity:1;fill-rule:nonzero;stroke:none"
         d="m 5034.68,0.0117188 c 47.13,0 85.33,38.1991812 85.33,85.3280812 l 0,2048.0002 c 0,61.26 -62.64,102.57 -118.95,78.44 l -1194.66,-512 c -31.38,-13.45 -51.72,-44.3 -51.72,-78.44 l 0,-1536.0002 c 0,-47.1289 38.2,-85.3280812 85.33,-85.3280812 l 1194.67,0 z M 3925.34,170.68 l 0,1394.39 1024,438.86 0,-1833.25 -1024,0" /><path
         id="path16"
         style="fill:#100f0d;fill-opacity:1;fill-rule:nonzero;stroke:none"
         d="m 3840.01,0.0117188 c 47.13,0 85.33,38.1991812 85.33,85.3280812 l 0,2048.0002 c 0,61.26 -62.64,102.57 -118.94,78.44 l -1194.67,-512 c -31.38,-13.45 -51.72,-44.3 -51.72,-78.44 l 0,-1536.0002 c 0,-47.1289 38.21,-85.3280812 85.33,-85.3280812 l 1194.67,0 z M 2730.68,170.68 l 0,1394.39 1024,438.86 0,-1833.25 -1024,0" /><path
         id="path18"
         style="fill:#100f0d;fill-opacity:1;fill-rule:nonzero;stroke:none"
         d="m 1621.34,0.0117188 c 50.86,0 90.43,44.2070812 84.81,94.7577812 L 1535.49,1630.77 c -4.8,43.21 -41.33,75.91 -84.81,75.91 l -1194.668,0 c -43.485,0 -80.012,-32.7 -84.813,-75.91 L 0.53125,94.7695 C -5.08594,44.2188 34.4844,0.0117188 85.3438,0.0117188 l 1535.9962,0 z M 1526,170.68 l -1345.316,0 151.703,1365.33 1041.913,0 L 1526,170.68" /><path
         id="path20"
         style="fill:#100f0d;fill-opacity:1;fill-rule:nonzero;stroke:none"
         d="m 1280.01,1536.01 c 49.61,0 88.77,42.16 85.1,91.64 l -170.67,2304 c -3.3,44.56 -40.41,79.03 -85.1,79.03 l -511.996,0 c -44.684,0 -81.801,-34.47 -85.102,-79.03 l -170.664,-2304 c -3.668,-49.48 35.488,-91.64 85.098,-91.64 l 853.334,0 z m -761.444,170.67 158.024,2133.33 353.51,0 158.02,-2133.33 -669.554,0" /><path
         id="path22"
         style="fill:#100f0d;fill-opacity:1;fill-rule:nonzero;stroke:none"
         d="m 1546.02,1536.01 1013.99,0 0,-1365.33 -862.29,0 -151.7,1365.33 z m -180.15,75.91 170.66,-1535.9981 c 4.8,-43.2227 41.33,-75.9101812 84.81,-75.9101812 l 1024,0 c 47.13,0 85.34,38.1991812 85.34,85.3280812 l 0,1536.0002 c 0,47.13 -38.21,85.34 -85.34,85.34 l -1194.66,0 c -50.86,0 -90.43,-44.21 -84.81,-94.76" /><path
         id="path24"
         style="fill:#100f0d;fill-opacity:1;fill-rule:nonzero;stroke:none"
         d="m 2304.01,1536.01 c 47.13,0 85.33,38.2 85.33,85.33 l 0,735.83 c 0,112.07 -90.77,202.84 -202.83,202.84 l -277,0 c -112.06,0 -202.83,-90.77 -202.83,-202.84 l 0,-735.83 c 0,-47.13 38.2,-85.33 85.33,-85.33 l 512,0 z m -426.67,170.67 0,650.49 c 0,17.81 14.36,32.17 32.17,32.17 l 277,0 c 17.81,0 32.17,-14.36 32.17,-32.17 l 0,-650.49 -341.34,0" /><path
         id="path26"
         style="fill:#100f0d;fill-opacity:1;fill-rule:nonzero;stroke:none"
         d="m 3157.34,597.328 170.67,0 0,-426.66 -170.67,0 0,426.66 z M 3072.01,0 3413.34,0 c 47.13,0 85.34,38.1992 85.34,85.3281 l 0,597.3439 c 0,47.117 -38.21,85.328 -85.34,85.328 l -341.33,0 c -47.13,0 -85.33,-38.211 -85.33,-85.328 l 0,-597.3439 C 2986.68,38.1992 3024.88,0 3072.01,0" /><path
         id="path28"
         style="fill:#100f0d;fill-opacity:1;fill-rule:nonzero;stroke:none"
         d="m 4352.01,597.328 170.67,0 0,-426.66 -170.67,0 0,426.66 z M 4266.68,0 4608.01,0 c 47.13,0 85.33,38.1992 85.33,85.3281 l 0,597.3439 c 0,47.117 -38.2,85.328 -85.33,85.328 l -341.33,0 c -47.13,0 -85.34,-38.211 -85.34,-85.328 l 0,-597.3439 C 4181.34,38.1992 4219.55,0 4266.68,0" /><path
         id="path30"
         style="fill:#100f0d;fill-opacity:1;fill-rule:nonzero;stroke:none"
         d="m 682.676,170.668 0,512.004 341.334,0 0,-512.004 -341.334,0 z M 597.344,0 1109.34,0 c 47.13,0 85.34,38.1992 85.34,85.3281 l 0,682.6719 c 0,47.129 -38.21,85.332 -85.34,85.332 l -511.996,0 c -47.129,0 -85.332,-38.203 -85.332,-85.332 l 0,-682.6719 C 512.012,38.1992 550.215,0 597.344,0" /><path
         id="path32"
         style="fill:#100f0d;fill-opacity:1;fill-rule:nonzero;stroke:none"
         d="m 1706.68,4608.01 170.66,0 c 22.41,0 43.91,8.81 59.88,24.53 14.58,14.36 51.87,40.44 114.34,68.11 109.51,48.51 249.49,78.03 423.12,78.03 38.26,0.46 91.48,-5.69 141.53,-23.87 75.79,-27.53 114.47,-71.49 114.47,-146.8 0,-90.63 122.61,-118.76 162.12,-37.21 3.32,6.84 11.85,21.67 25.86,41.82 24.19,34.79 54.45,69.81 90.94,102.47 104.19,93.26 236.82,148.92 403.74,148.92 l 15.57,1.43 c -0.73,-0.34 10.87,-1.45 30.36,-7.01 35.56,-10.15 79.23,-30.95 131.01,-65.54 92.26,-61.68 173.07,-148.35 241.8,-256.05 165.51,-259.06 364.44,-437.82 599.31,-440.79 71.74,-6.8 149.27,6.68 223.82,56.19 91.19,60.54 155.39,162.46 186.81,309.31 158.51,-344.44 -86.32,-781.82 -510.55,-791.46 -20.9,-0.5 -42.49,-0.75 -64.79,-0.75 l -12.65,-0.94 c -32.59,-2.65 -71.29,-0.46 -116.06,10.05 -67.15,15.76 -133.53,47.38 -196.32,99.03 -14.05,11.56 -27.82,24.06 -41.3,37.54 -36.48,36.48 -96.74,32.49 -128.1,-8.47 -6.59,-8.61 -20.46,-25.21 -40.82,-47.11 -34.42,-37.03 -73.79,-74.14 -117.18,-108.64 -120.41,-95.73 -246.85,-152.12 -371.57,-152.12 l -14.38,-1.22 c -28.4,-2.42 -73.25,2.78 -131.81,23.72 -94.48,33.78 -197.21,100.24 -305.47,208.5 l -85.34,85.34 c -53.75,53.75 -145.67,15.68 -145.67,-60.34 0,-23.98 -62.32,-56.61 -182.77,-73.86 -76.54,-10.96 -158.32,-13.78 -227.66,-11.98 -6.16,0.16 -10.57,0.33 -12.24,0.41 -161.35,0.09 -272.71,90.63 -350.21,250.62 -28.66,59.19 -50.19,123.41 -65.36,187.73 -9.06,38.41 -13.9,67.75 -15.62,83.2 -37.52,198.64 -203.71,264.43 -431.42,243.58 -43.05,-3.94 -87.45,-10.89 -132.56,-20.29 130.13,122.16 311.99,193.92 564.51,193.92 z m 2013.79,-1090.8 c 46.9,37.3 89.48,76.94 127.29,116.8 143.4,-112.26 292.54,-145.99 416.06,-136.07 29.84,0.78 51.06,1.04 71.62,1.53 638.34,14.51 965.18,776.93 523.15,1234.87 -10.1,10.48 -17.89,17.98 -22.78,22.39 -54.91,49.48 -142.47,10.52 -142.47,-63.39 0,-223.36 -52.37,-345.7 -132.53,-398.93 -37.65,-24.99 -77.32,-31.89 -108.45,-28.96 -1.18,0.11 -15.02,1.23 -15.02,1.23 -159.86,0 -323.71,146.47 -461.42,362.01 -80.75,126.52 -177.61,230.42 -290.81,306.09 -118.58,79.23 -211.75,105.86 -276.77,99.88 -208.76,-1.13 -379.46,-73.27 -512.56,-192.4 -18.3,-16.38 -35.06,-32.8 -50.32,-48.99 -39.69,55.16 -98.67,95.68 -170.98,121.95 -72.93,26.49 -144.85,34.8 -200.01,34.13 -197.19,-0.01 -360.71,-34.49 -492.03,-92.65 -60.11,-26.63 -105.28,-54.1 -136.44,-78.02 l -139.32,0 c -295.84,0 -519.48,-88.25 -677.41,-236.45 -96.747,-90.79 -149.793,-182.89 -171.598,-248.73 -22.707,-68.55 44.699,-132.55 111.984,-106.34 5.793,2.26 17.461,6.54 34.004,12.18 27.99,9.52 58.9,19.08 91.7,28 67.66,18.39 133.99,31.5 194.94,37.09 151.25,13.85 231.81,-18.05 247.21,-99.03 1.47,-15.4 7.4,-51.39 18.15,-96.98 17.85,-75.68 43.25,-151.46 77.88,-222.94 103.33,-213.34 267.48,-346.8 499.8,-346.8 89.89,-2.47 180.45,0.64 268.1,13.2 117.16,16.78 210.23,47.11 267.12,98.9 127.5,-127.5 251.66,-207.82 370.47,-250.3 82.47,-29.48 152.01,-37.56 204.55,-32.91 172,2.04 330.63,73.36 476.89,189.64" /><path
         id="path34"
         style="fill:#100f0d;fill-opacity:1;fill-rule:nonzero;stroke:none"
         d="m 2705.68,3815.02 -170.66,170.66 c -33.33,33.33 -87.36,33.33 -120.68,0 -33.33,-33.32 -33.33,-87.35 0,-120.68 L 2585,3694.34 c 33.33,-33.33 87.36,-33.33 120.68,0 33.33,33.32 33.33,87.35 0,120.68" /><path
         id="path36"
         style="fill:#100f0d;fill-opacity:1;fill-rule:nonzero;stroke:none"
         d="m 1792.01,1194.68 0,-682.668 c 0,-47.133 38.21,-85.332 85.33,-85.332 47.13,0 85.34,38.199 85.34,85.332 l 0,682.668 c 0,47.12 -38.21,85.33 -85.34,85.33 -47.12,0 -85.33,-38.21 -85.33,-85.33" /><path
         id="path38"
         style="fill:#100f0d;fill-opacity:1;fill-rule:nonzero;stroke:none"
         d="m 2218.68,1194.68 0,-682.668 c 0,-47.133 38.2,-85.332 85.33,-85.332 47.13,0 85.33,38.199 85.33,85.332 l 0,682.668 c 0,47.12 -38.2,85.33 -85.33,85.33 -47.13,0 -85.33,-38.21 -85.33,-85.33" /><path
         id="path40"
         style="fill:#100f0d;fill-opacity:1;fill-rule:nonzero;stroke:none"
         d="m 3157.34,1194.67 0,170.66 170.67,0 0,-170.66 -170.67,0 z m -85.33,-170.67 341.33,0 c 47.13,0 85.34,38.21 85.34,85.33 l 0,341.34 c 0,47.13 -38.21,85.33 -85.34,85.33 l -341.33,0 c -47.13,0 -85.33,-38.2 -85.33,-85.33 l 0,-341.34 c 0,-47.12 38.2,-85.33 85.33,-85.33" /><path
         id="path42"
         style="fill:#100f0d;fill-opacity:1;fill-rule:nonzero;stroke:none"
         d="m 4352.01,1194.67 0,170.66 170.67,0 0,-170.66 -170.67,0 z m -85.33,-170.67 341.33,0 c 47.13,0 85.33,38.21 85.33,85.33 l 0,341.34 c 0,47.13 -38.2,85.33 -85.33,85.33 l -341.33,0 c -47.13,0 -85.34,-38.2 -85.34,-85.33 l 0,-341.34 c 0,-47.12 38.21,-85.33 85.34,-85.33" /></g></g></svg>